<svg version="1.1" id="Layer_1" xmlns="http://www.w3.org/2000/svg" xmlns:xlink="http://www.w3.org/1999/xlink" x="0px" y="0px"
	 width="296.95px" height="43.437px" viewBox="0 0 296.95 43.437" enable-background="new 0 0 296.95 43.437" xml:space="preserve">
<g>
	<path d="M11.558,24.156L21.316,0l9.758,24.156l7.918-22.596h3.64L31.075,33.274L21.316,8.998l-9.758,24.276L0,1.561h3.639
		L11.558,24.156z"/>
	<path d="M50.959,1.561h15.637V4.68H54.318v8.958h11.918v3.12H54.318v11.838h12.278v3.119H50.959V1.561z"/>
	<path d="M81.638,23.156l-3.639,8.559h-3.68L88.237,0.12l13.558,31.595h-3.719l-3.56-8.559H81.638z M88.157,7.959l-5.159,12.078
		h10.198L88.157,7.959z"/>
	<path d="M113.238,31.715h-3.359V1.561h4.359c5.719,0,11.038,1.52,11.038,8.318c0,4.639-2.919,7.918-7.559,8.318l9.598,13.518
		h-4.119l-9.119-13.238h-0.84V31.715z M113.238,15.518h1.04c3.799,0,7.639-0.72,7.639-5.398c0-4.96-3.64-5.439-7.679-5.439h-1
		V15.518z"/>
	<path d="M184.275,7.439c-1.2-2.08-2.64-3.279-5.199-3.279c-2.68,0-4.999,1.919-4.999,4.679c0,2.6,2.68,3.8,4.719,4.72l2,0.879
		c3.92,1.72,7.238,3.68,7.238,8.479c0,5.279-4.238,9.318-9.479,9.318c-4.838,0-8.438-3.119-9.398-7.799l3.28-0.92
		c0.44,3.08,2.8,5.6,6.038,5.6c3.24,0,6.199-2.479,6.199-5.879c0-3.52-2.76-4.719-5.559-5.999l-1.84-0.8
		c-3.52-1.6-6.559-3.399-6.559-7.719c0-4.68,3.959-7.679,8.438-7.679c3.359,0,6.198,1.72,7.799,4.679L184.275,7.439z"/>
	<path d="M201.116,28.596h8.318v3.119h-11.678V1.561h3.359V28.596z"/>
	<path d="M247.472,16.678c0,8.678-7.119,15.557-15.717,15.557c-8.599,0-15.718-6.879-15.718-15.557
		c0-8.639,7.119-15.638,15.718-15.638C240.353,1.04,247.472,8.039,247.472,16.678z M219.397,16.637
		c0,6.799,5.519,12.479,12.357,12.479s12.357-5.68,12.357-12.479c0-6.838-5.439-12.477-12.357-12.477
		C224.836,4.16,219.397,9.799,219.397,16.637z"/>
	<path d="M265.876,24.156L275.634,0l9.758,24.156l7.92-22.596h3.639l-11.559,31.714l-9.758-24.276l-9.758,24.276L254.317,1.561h3.64
		L265.876,24.156z"/>
</g>
<path fill="none" stroke="#000000" stroke-width="3" stroke-miterlimit="10" d="M120.387,43.437
	c8.518-0.776,35.919-30.503,26.648-40.304c-5.947-6.287-9.815,6.094-9.122,10.407c2.538,15.782,24.689,13.369,26.804-2.062"/>
</svg>
